# xmcd
#
# Track frame offsets:
#	150
#	17750
#	31546
#	49393
#	65143
#	81470
#	94591
#	106213
#	120774
#	137264
#	153135
#
# Disc length: 2238 seconds
#
# Revision: 1
# Processed by: cddbd v1.5.1PL0 Copyright (c) Steve Scherf et al.
# Submitted via: EasyCDDAExtractor 7.0.6.1
#
DISCID=7c08bc0b
DTITLE=Iman - Fe
DYEAR=2004
DGENRE=Folklore
TTITLE0=Ya no
TTITLE1=Con el destino a mi favor
TTITLE2=Si me hubieras dicho
TTITLE3=Con los brazos cruzados
TTITLE4=Si la hubiera escuchado
TTITLE5=Dame una razon
TTITLE6=Droga dañina
TTITLE7=Perdoname
TTITLE8=Me falta valor
TTITLE9=Hasta las chanclas
TTITLE10=Te quiero, Te quiero
EXTD=
EXTT0=
EXTT1=
EXTT2=
EXTT3=
EXTT4=
EXTT5=
EXTT6=
EXTT7=
EXTT8=
EXTT9=
EXTT10=
PLAYORDER=
